<svg width="14" height="12" viewBox="0 0 14 12" fill="none" xmlns="http://www.w3.org/2000/svg">
<path  fill-rule="evenodd" clip-rule="evenodd" d="M0.700195 6.00002C0.700195 5.821 0.771311 5.64931 0.897898 5.52272C1.02449 5.39613 1.19617 5.32502 1.3752 5.32502H10.9494L7.20719 1.76102C7.14028 1.70033 7.08624 1.62682 7.04826 1.54486C7.01028 1.46289 6.98913 1.37414 6.98608 1.28385C6.98303 1.19357 6.99814 1.10359 7.0305 1.01925C7.06286 0.934909 7.11182 0.857923 7.17448 0.792852C7.23714 0.727781 7.31223 0.675949 7.39529 0.640429C7.47835 0.604909 7.56769 0.586422 7.65803 0.586065C7.74836 0.585707 7.83785 0.603486 7.92119 0.638348C8.00453 0.67321 8.08002 0.724446 8.1432 0.789019L13.0932 5.51402C13.1585 5.57698 13.2105 5.65248 13.246 5.73598C13.2815 5.81948 13.2998 5.90929 13.2998 6.00002C13.2998 6.09075 13.2815 6.18055 13.246 6.26406C13.2105 6.34756 13.1585 6.42305 13.0932 6.48602L8.1432 11.211C8.08002 11.2756 8.00453 11.3268 7.92119 11.3617C7.83785 11.3966 7.74836 11.4143 7.65803 11.414C7.56769 11.4136 7.47835 11.3951 7.39529 11.3596C7.31223 11.3241 7.23714 11.2723 7.17448 11.2072C7.11182 11.1421 7.06286 11.0651 7.0305 10.9808C6.99814 10.8964 6.98303 10.8065 6.98608 10.7162C6.98913 10.6259 7.01028 10.5371 7.04826 10.4552C7.08624 10.3732 7.14028 10.2997 7.20719 10.239L10.9494 6.67502H1.3752C1.19617 6.67502 1.02449 6.6039 0.897898 6.47732C0.771311 6.35073 0.700195 6.17904 0.700195 6.00002Z" fill="#49DE80"/>
</svg>
