<svg width="55" height="18" viewBox="0 0 55 18" fill="none" xmlns="http://www.w3.org/2000/svg">
<path fill-rule="evenodd" clip-rule="evenodd" d="M15.2998 9.0001C15.2998 9.17912 15.2287 9.35081 15.1021 9.4774C14.9755 9.60399 14.8038 9.6751 14.6248 9.6751H5.05061L8.79281 13.2391C8.85972 13.2998 8.91376 13.3733 8.95174 13.4553C8.98972 13.5372 9.01087 13.626 9.01392 13.7163C9.01697 13.8066 9.00186 13.8965 8.9695 13.9809C8.93714 14.0652 8.88818 14.1422 8.82552 14.2073C8.76286 14.2723 8.68777 14.3242 8.60471 14.3597C8.52165 14.3952 8.43231 14.4137 8.34197 14.4141C8.25164 14.4144 8.16215 14.3966 8.07881 14.3618C7.99547 14.3269 7.91998 14.2757 7.8568 14.2111L2.90681 9.4861C2.84148 9.42314 2.78951 9.34765 2.75402 9.26414C2.71853 9.18064 2.70024 9.09084 2.70024 9.0001C2.70024 8.90937 2.71853 8.81957 2.75402 8.73606C2.78951 8.65256 2.84148 8.57707 2.90681 8.5141L7.8568 3.7891C7.91998 3.72453 7.99547 3.6733 8.07881 3.63843C8.16215 3.60357 8.25164 3.58579 8.34197 3.58615C8.43231 3.58651 8.52165 3.60499 8.60471 3.64051C8.68777 3.67603 8.76286 3.72786 8.82552 3.79294C8.88818 3.85801 8.93714 3.93499 8.9695 4.01933C9.00186 4.10367 9.01697 4.19365 9.01392 4.28394C9.01087 4.37422 8.98972 4.46298 8.95174 4.54494C8.91376 4.6269 8.85972 4.70041 8.79281 4.7611L5.05061 8.3251H14.6248C14.8038 8.3251 14.9755 8.39622 15.1021 8.52281C15.2287 8.64939 15.2998 8.82108 15.2998 9.0001Z" fill="black" fill-opacity="0.4"/>
<path d="M25.218 14V3.969H28.417C29.033 3.969 29.5627 4.02967 30.006 4.151C30.454 4.27233 30.8203 4.445 31.105 4.669C31.3943 4.893 31.6067 5.16833 31.742 5.495C31.882 5.817 31.952 6.181 31.952 6.587C31.952 6.83433 31.9123 7.07233 31.833 7.301C31.7583 7.52967 31.6417 7.742 31.483 7.938C31.329 8.134 31.133 8.309 30.895 8.463C30.6617 8.617 30.3863 8.743 30.069 8.841C30.8017 8.98567 31.3547 9.24933 31.728 9.632C32.1013 10.0147 32.288 10.5187 32.288 11.144C32.288 11.5687 32.2087 11.956 32.05 12.306C31.896 12.656 31.6673 12.957 31.364 13.209C31.0653 13.461 30.6967 13.657 30.258 13.797C29.824 13.9323 29.327 14 28.767 14H25.218ZM26.576 9.429V12.922H28.746C29.1333 12.922 29.4647 12.8777 29.74 12.789C30.02 12.7003 30.2487 12.5767 30.426 12.418C30.608 12.2547 30.741 12.0633 30.825 11.844C30.909 11.62 30.951 11.375 30.951 11.109C30.951 10.591 30.7667 10.1827 30.398 9.884C30.034 9.58067 29.481 9.429 28.739 9.429H26.576ZM26.576 8.463H28.368C28.7507 8.463 29.082 8.421 29.362 8.337C29.642 8.253 29.873 8.13633 30.055 7.987C30.2417 7.83767 30.3793 7.658 30.468 7.448C30.5567 7.23333 30.601 7 30.601 6.748C30.601 6.16 30.4237 5.72833 30.069 5.453C29.7143 5.17767 29.1637 5.04 28.417 5.04H26.576V8.463ZM39.2945 14H38.7415C38.6201 14 38.5221 13.9813 38.4475 13.944C38.3728 13.9067 38.3238 13.8273 38.3005 13.706L38.1605 13.048C37.9738 13.216 37.7918 13.3677 37.6145 13.503C37.4371 13.6337 37.2505 13.7457 37.0545 13.839C36.8585 13.9277 36.6485 13.9953 36.4245 14.042C36.2051 14.0887 35.9601 14.112 35.6895 14.112C35.4141 14.112 35.1551 14.0747 34.9125 14C34.6745 13.9207 34.4668 13.804 34.2895 13.65C34.1121 13.496 33.9698 13.3023 33.8625 13.069C33.7598 12.831 33.7085 12.551 33.7085 12.229C33.7085 11.949 33.7855 11.6807 33.9395 11.424C34.0935 11.1627 34.3408 10.9317 34.6815 10.731C35.0268 10.5303 35.4771 10.367 36.0325 10.241C36.5878 10.1103 37.2668 10.0357 38.0695 10.017V9.464C38.0695 8.91333 37.9505 8.498 37.7125 8.218C37.4791 7.93333 37.1315 7.791 36.6695 7.791C36.3661 7.791 36.1095 7.83067 35.8995 7.91C35.6941 7.98467 35.5145 8.071 35.3605 8.169C35.2111 8.26233 35.0805 8.34867 34.9685 8.428C34.8611 8.50267 34.7538 8.54 34.6465 8.54C34.5625 8.54 34.4878 8.519 34.4225 8.477C34.3618 8.43033 34.3128 8.37433 34.2755 8.309L34.0515 7.91C34.4435 7.532 34.8658 7.24967 35.3185 7.063C35.7711 6.87633 36.2728 6.783 36.8235 6.783C37.2201 6.783 37.5725 6.84833 37.8805 6.979C38.1885 7.10967 38.4475 7.29167 38.6575 7.525C38.8675 7.75833 39.0261 8.04067 39.1335 8.372C39.2408 8.70333 39.2945 9.06733 39.2945 9.464V14ZM36.0605 13.237C36.2798 13.237 36.4805 13.216 36.6625 13.174C36.8445 13.1273 37.0148 13.0643 37.1735 12.985C37.3368 12.901 37.4908 12.8007 37.6355 12.684C37.7848 12.5673 37.9295 12.4343 38.0695 12.285V10.808C37.4955 10.8267 37.0078 10.8733 36.6065 10.948C36.2051 11.018 35.8785 11.1113 35.6265 11.228C35.3745 11.3447 35.1901 11.4823 35.0735 11.641C34.9615 11.7997 34.9055 11.977 34.9055 12.173C34.9055 12.3597 34.9358 12.5207 34.9965 12.656C35.0571 12.7913 35.1388 12.9033 35.2415 12.992C35.3441 13.076 35.4655 13.139 35.6055 13.181C35.7455 13.2183 35.8971 13.237 36.0605 13.237ZM46.0192 8.169C45.9818 8.22033 45.9445 8.26 45.9072 8.288C45.8698 8.316 45.8162 8.33 45.7462 8.33C45.6762 8.33 45.5992 8.302 45.5152 8.246C45.4358 8.18533 45.3332 8.12 45.2072 8.05C45.0812 7.98 44.9272 7.917 44.7452 7.861C44.5678 7.80033 44.3485 7.77 44.0872 7.77C43.7418 7.77 43.4362 7.833 43.1702 7.959C42.9042 8.08033 42.6802 8.25767 42.4982 8.491C42.3208 8.72433 42.1855 9.00667 42.0922 9.338C42.0035 9.66933 41.9592 10.0403 41.9592 10.451C41.9592 10.8803 42.0082 11.263 42.1062 11.599C42.2042 11.9303 42.3418 12.2103 42.5192 12.439C42.6965 12.663 42.9112 12.8357 43.1632 12.957C43.4198 13.0737 43.7068 13.132 44.0242 13.132C44.3275 13.132 44.5772 13.097 44.7732 13.027C44.9692 12.9523 45.1325 12.8707 45.2632 12.782C45.3938 12.6933 45.5012 12.614 45.5852 12.544C45.6692 12.4693 45.7532 12.432 45.8372 12.432C45.9445 12.432 46.0238 12.4717 46.0752 12.551L46.4252 13.006C46.1172 13.384 45.7322 13.6617 45.2702 13.839C44.8082 14.0117 44.3205 14.098 43.8072 14.098C43.3638 14.098 42.9508 14.0163 42.5682 13.853C42.1902 13.6897 41.8612 13.454 41.5812 13.146C41.3012 12.8333 41.0795 12.4507 40.9162 11.998C40.7575 11.5453 40.6782 11.0297 40.6782 10.451C40.6782 9.92367 40.7505 9.436 40.8952 8.988C41.0445 8.54 41.2592 8.155 41.5392 7.833C41.8238 7.50633 42.1738 7.252 42.5892 7.07C43.0045 6.888 43.4805 6.797 44.0172 6.797C44.5118 6.797 44.9505 6.87867 45.3332 7.042C45.7158 7.20067 46.0542 7.427 46.3482 7.721L46.0192 8.169ZM49.0123 3.689V9.758H49.3343C49.4276 9.758 49.5046 9.74633 49.5653 9.723C49.626 9.695 49.6936 9.64133 49.7683 9.562L52.0083 7.161C52.0783 7.08633 52.1483 7.02567 52.2183 6.979C52.2883 6.93233 52.3816 6.909 52.4983 6.909H53.6323L51.0213 9.688C50.956 9.76733 50.8906 9.83733 50.8253 9.898C50.7646 9.95867 50.6946 10.0123 50.6153 10.059C50.6993 10.115 50.774 10.1803 50.8393 10.255C50.9093 10.325 50.9746 10.4067 51.0353 10.5L53.8073 14H52.6873C52.5846 14 52.496 13.9813 52.4213 13.944C52.3513 13.902 52.2836 13.839 52.2183 13.755L49.8873 10.85C49.8173 10.752 49.7473 10.689 49.6773 10.661C49.6073 10.6283 49.5023 10.612 49.3623 10.612H49.0123V14H47.7593V3.689H49.0123Z" fill="black" fill-opacity="0.4"/>
</svg>
