<?xml version="1.0" standalone="no"?>
<!DOCTYPE svg PUBLIC "-//W3C//DTD SVG 20010904//EN"
 "http://www.w3.org/TR/2001/REC-SVG-20010904/DTD/svg10.dtd">
<svg version="1.0" xmlns="http://www.w3.org/2000/svg"
 width="2560.000000pt" height="789.000000pt" viewBox="0 0 2560.000000 789.000000"
 preserveAspectRatio="xMidYMid meet">

<g transform="translate(0.000000,789.000000) scale(0.100000,-0.100000)"
fill="#000000" stroke="none">
<path d="M3125 7713 c-148 -86 -783 -454 -1410 -818 -627 -364 -1269 -735
-1427 -826 l-287 -164 -1 -1966 0 -1965 153 -88 c83 -49 638 -368 1232 -709
594 -341 1292 -743 1552 -892 l471 -272 269 155 c147 85 759 439 1358 787 600
348 1244 721 1433 830 l342 198 0 1966 0 1967 -327 189 c-181 104 -812 466
-1403 805 -591 339 -1209 694 -1372 788 -163 95 -300 172 -305 172 -4 0 -129
-71 -278 -157z m1265 -2062 l975 -560 0 -1141 0 -1141 -975 -565 c-804 -466
-978 -563 -995 -556 -30 14 -1928 1102 -1942 1114 -10 8 -13 248 -13 1139 l0
1129 23 14 c71 47 1934 1126 1942 1126 6 0 449 -252 985 -559z"/>
<path d="M16303 5463 c-62 -21 -136 -92 -163 -155 -61 -140 0 -310 135 -380
56 -29 167 -36 232 -14 150 50 231 227 173 378 -55 147 -227 225 -377 171z"/>
<path d="M20637 5463 c-114 -38 -191 -150 -191 -278 1 -163 124 -285 289 -285
165 0 288 121 289 285 1 205 -191 343 -387 278z"/>
<path d="M11850 4025 l0 -1415 225 0 225 0 1 353 c1 193 4 474 8 622 l6 270
32 67 c64 135 172 210 330 230 82 10 96 9 161 -11 117 -35 221 -139 252 -251
6 -21 10 -283 10 -657 l0 -623 215 0 216 0 -3 697 -3 698 -28 90 c-42 134 -81
199 -172 290 -125 126 -240 172 -451 182 -94 4 -139 2 -198 -12 -105 -23 -237
-91 -311 -159 -33 -31 -61 -56 -62 -56 -2 0 -3 248 -3 550 l0 550 -225 0 -225
0 0 -1415z"/>
<path d="M19470 4025 l0 -1415 225 0 225 0 0 1415 0 1415 -225 0 -225 0 0
-1415z"/>
<path d="M23810 4025 l0 -1415 220 0 220 0 0 263 0 263 116 122 c64 68 121
121 127 119 5 -1 132 -176 281 -387 l271 -385 273 -3 c149 -1 272 0 272 3 0 3
-168 239 -373 523 -205 284 -383 532 -396 550 l-23 33 392 399 392 400 -298 0
-299 0 -360 -380 c-197 -209 -363 -380 -367 -380 -4 0 -8 380 -8 845 l0 845
-220 0 -220 0 0 -1415z"/>
<path d="M9969 5420 c-294 -46 -562 -182 -769 -390 -197 -198 -323 -428 -380
-697 -27 -123 -38 -425 -21 -564 70 -595 494 -1063 1081 -1194 100 -22 443
-32 549 -16 395 62 729 300 915 652 54 102 102 237 90 249 -7 7 -379 129 -407
134 -5 0 -19 -26 -31 -60 -99 -269 -332 -469 -616 -529 -82 -17 -256 -20 -350
-4 -90 14 -248 69 -315 110 -205 123 -346 317 -412 564 -25 93 -27 114 -27
310 0 197 2 216 27 310 52 191 135 334 269 460 143 136 312 212 518 236 375
43 689 -116 841 -425 27 -55 49 -106 49 -113 0 -6 4 -23 10 -37 l9 -25 213 71
c117 39 215 72 217 74 1 1 -7 33 -19 71 -114 348 -365 610 -710 740 -147 56
-260 75 -475 78 -110 2 -225 0 -256 -5z"/>
<path d="M14665 4560 c-93 -15 -192 -48 -280 -93 -113 -58 -248 -192 -299
-297 -35 -74 -74 -205 -63 -216 3 -4 382 -92 403 -94 1 0 5 20 8 44 16 102
100 217 193 264 92 47 244 53 359 16 122 -39 197 -137 198 -258 1 -73 -19
-111 -70 -132 -18 -8 -174 -37 -346 -64 -172 -28 -335 -57 -363 -66 -281 -92
-427 -291 -412 -564 8 -156 67 -283 183 -396 66 -65 190 -128 294 -150 91 -19
273 -13 365 11 128 35 272 130 349 231 l33 43 7 -97 c4 -53 9 -107 12 -119 l6
-23 205 0 205 0 -7 28 c-4 15 -11 326 -14 692 -7 640 -8 668 -29 743 -33 119
-78 203 -154 282 -100 106 -212 165 -382 201 -86 19 -319 26 -401 14z m527
-1167 c9 -168 -26 -268 -126 -369 -103 -103 -221 -141 -381 -125 -115 12 -173
47 -220 133 -67 124 -15 282 115 348 24 12 114 30 251 51 118 17 234 35 259
39 102 18 97 21 102 -77z"/>
<path d="M18115 4564 c-163 -26 -322 -124 -428 -264 l-26 -35 -1 123 0 122
-220 0 -220 0 0 -950 0 -950 225 0 224 0 3 618 3 617 23 58 c84 206 303 305
525 237 123 -38 214 -153 237 -300 6 -39 10 -301 10 -647 l0 -583 226 0 226 0
-5 673 c-5 717 -4 711 -56 860 -33 93 -79 167 -155 243 -78 77 -173 131 -281
159 -61 16 -255 27 -310 19z"/>
<path d="M22405 4555 c-143 -30 -291 -127 -388 -255 l-26 -35 -1 123 0 122
-220 0 -220 0 0 -950 0 -950 225 0 225 0 0 593 c0 354 4 609 10 635 27 115
111 222 215 273 78 38 200 56 276 40 113 -25 215 -107 266 -216 l28 -60 3
-632 3 -633 225 0 226 0 -5 673 c-5 733 -4 723 -65 880 -74 191 -217 322 -412
377 -99 27 -270 35 -365 15z"/>
<path d="M16180 3553 l0 -956 137 6 c75 4 176 7 225 7 l88 0 0 950 0 950 -225
0 -225 0 0 -957z"/>
<path d="M20510 3553 l0 -956 137 6 c75 4 176 7 225 7 l88 0 0 950 0 950 -225
0 -225 0 0 -957z"/>
</g>
</svg>
