<svg viewBox="0 0 80 80" xml:space="preserve" xmlns="http://www.w3.org/2000/svg"><g fill="none" stroke="#49de80" stroke-linecap="round" stroke-linejoin="round" stroke-miterlimit="10" stroke-width="4" class="stroke-000000"><ellipse cx="40" cy="34.988" rx="35" ry="23"></ellipse><path d="M5 34.988v12.847c0 3.907 1.75 7.611 4.778 10.08C17.415 64.139 28.131 68.012 40 68.012s22.585-3.873 30.222-10.098A13 13 0 0 0 75 47.835V34.988"></path><path d="M51.163 19.348C61.53 21.97 69 28.077 69 34.988c0 2.258-.798 4.429-2.234 6.422-1.409 1.955-3.433 3.737-5.92 5.258M40 67.988v-10M51.667 66.72V56.679M63.333 62.447v-4.459M28.333 66.72V56.679M16.667 62.447V52.412M40 21 26 35l14 5 14-5zM53 41l-13 8-13-8"></path></g></svg>