<?xml version="1.0" standalone="no"?>
<!DOCTYPE svg PUBLIC "-//W3C//DTD SVG 20010904//EN"
 "http://www.w3.org/TR/2001/REC-SVG-20010904/DTD/svg10.dtd">
<svg version="1.0" xmlns="http://www.w3.org/2000/svg"
 width="600.000000pt" height="600.000000pt" viewBox="0 0 600.000000 600.000000"
 preserveAspectRatio="xMidYMid meet">

<g transform="translate(0.000000,600.000000) scale(0.100000,-0.100000)"
fill="#49DE80" stroke="none">
<path d="M3850 5203 c-52 -19 -83 -90 -59 -134 6 -13 70 -85 140 -160 124
-132 140 -153 120 -161 -6 -1 -47 -39 -93 -83 -46 -44 -97 -92 -114 -108 l-30
-27 -135 145 c-138 150 -166 169 -219 155 -14 -4 -24 -12 -23 -18 2 -6 -4 -9
-11 -6 -20 8 -36 -27 -36 -76 0 -45 8 -55 203 -256 l79 -81 -76 -69 -75 -69
141 -150 c340 -361 344 -364 446 -365 76 0 116 24 260 161 70 65 129 119 132
119 21 -1 177 -245 239 -375 140 -291 197 -566 188 -895 -7 -249 -37 -408
-118 -625 -242 -644 -789 -1104 -1469 -1231 -116 -22 -425 -30 -559 -14 -366
42 -736 206 -1020 452 -24 21 -49 35 -55 31 -6 -3 -8 -3 -4 2 4 4 -29 46 -73
92 -120 128 -269 331 -269 369 0 21 -42 221 -79 376 -140 584 -138 1030 5
1363 37 86 63 123 50 71 -40 -159 -51 -518 -22 -706 32 -201 86 -445 151 -680
13 -47 29 -105 35 -129 l12 -44 25 44 c68 115 259 313 392 407 98 69 282 158
376 183 165 43 389 35 515 -19 l45 -19 -140 -1 c-359 -2 -669 -139 -955 -422
-92 -91 -277 -313 -224 -269 70 58 195 81 544 99 439 23 562 60 918 281 236
147 310 179 470 203 51 7 95 16 97 18 8 7 -497 365 -584 415 -262 150 -513
173 -726 68 -79 -39 -210 -134 -210 -152 0 -6 -4 -15 -9 -20 -5 -5 -6 -3 -2 5
4 6 3 12 -3 12 -5 0 -45 -38 -89 -85 -43 -47 -82 -85 -85 -85 -3 0 0 15 8 33
27 64 55 234 55 329 0 254 -97 533 -259 743 -136 176 -189 261 -216 346 -14
44 -25 91 -25 105 0 23 -8 18 -100 -56 -367 -297 -550 -568 -591 -875 -14
-106 -7 -285 16 -400 45 -234 192 -569 376 -861 32 -51 96 -170 142 -263 46
-93 113 -213 150 -267 88 -132 175 -236 189 -228 7 4 8 3 4 -4 -10 -16 99
-127 115 -117 7 5 10 4 5 -3 -9 -16 104 -113 237 -202 454 -306 1008 -411
1557 -295 111 23 301 89 416 144 144 69 246 130 238 143 -4 7 -2 8 5 4 19 -12
194 125 317 248 285 286 464 620 551 1031 25 122 27 145 27 385 0 240 -1 262
-27 382 -75 351 -222 655 -442 915 l-73 87 91 86 c51 48 108 101 128 118 78
68 103 195 57 280 -20 36 -144 172 -385 422 l-72 75 -68 -67 c-38 -38 -73 -68
-79 -68 -9 0 -196 194 -237 247 -33 42 -86 61 -127 46z"/>
</g>
</svg>
